<?xml version="1.0" encoding="UTF-8"?>
<svg width="200px" height="200px" viewBox="0 0 200 200" version="1.1" xmlns="http://www.w3.org/2000/svg" xmlns:xlink="http://www.w3.org/1999/xlink">
    <title>flow_icon</title>
    <g id="Page-1" stroke="none" stroke-width="1" fill="none" fill-rule="evenodd">
        <g id="flow_icon" fill-rule="nonzero">
            <rect id="Rectangle" fill="#1A1434" x="0" y="0" width="200" height="200"></rect>
            <g id="yao-light">
                <rect id="Rectangle" fill="#000000" opacity="0" x="0" y="0" width="199" height="199"></rect>
                <path d="M146.388977,151.349462 C139.928806,157.852349 132.411166,162.961761 124.047552,166.522866 C116.395325,169.774309 108.320111,171.612923 99.9949499,172 C99.3220152,171.806462 98.6106273,171.690339 97.8800127,171.690339 C80.7105696,171.554862 66.8673454,157.387857 67,140.104885 C67.0596125,132.634306 69.8859373,125.318558 74.7887458,119.705947 C79.7300079,114.035274 86.4401263,110.590292 93.7078188,109.487124 C95.0536879,109.293585 96.4187836,109.158108 97.7838792,109.119401 C101.187005,109.022632 104.609358,108.887155 107.954804,108.171063 C112.107771,107.280787 116.145378,105.809896 119.913811,103.816451 C123.989872,101.648822 127.739078,98.8812238 131.026844,95.62978 C139.948033,86.7850789 144.927748,74.9792416 145.023882,62.3605433 C145.062335,57.425316 144.350947,52.5868584 142.947398,48 C144.139453,49.0451069 145.293055,50.1289216 146.408204,51.2514438 C152.868375,57.7543312 157.944224,65.3216795 161.481937,73.7405964 C165.13501,82.4498207 167,91.7203059 167,101.281099 C167,110.841892 165.13501,120.112377 161.481937,128.821601 C157.905771,137.279226 152.849149,144.846574 146.388977,151.349462 L146.388977,151.349462 Z" id="Path" fill="#6694FF"></path>
                <path d="M37.4716947,130.969775 C33.8493185,122.289641 32,113.050121 32,103.521264 C32,93.9924058 33.8493185,84.7528858 37.4716947,76.0727522 C40.9796798,67.6819563 46.0128764,60.1398846 52.4187625,53.6587182 C58.8246489,47.1775517 66.2791178,42.0852064 74.5724527,38.5359964 C83.1136347,34.8710511 92.2077052,33.019289 101.587753,33 C102.026251,33.0771566 102.464749,33.115735 102.941378,33.115735 L103.379876,33.115735 C111.616015,33.1736026 119.356461,36.4913427 125.133198,42.4324118 C130.909935,48.373481 134.055683,56.2434688 134,64.5763974 C133.941292,71.809842 131.348433,78.8889733 126.73467,84.4249694 C122.178102,89.8838092 115.791281,93.6837787 108.85157,95.0147325 C104.752566,95.7863 100.596366,95.246203 96.5164263,95.8248783 C85.6111675,97.4065916 75.5638399,102.88472 68.2618921,111.294806 C60.8646187,119.782047 56.7465489,130.699727 56.6512231,142.022479 C56.5940278,148.272175 57.7570011,154.367558 59.9876225,160 C57.3375683,157.993925 54.8019049,155.775668 52.4378278,153.36452 C46.0128764,146.902643 40.9796798,139.360571 37.4716947,130.969775 Z" id="Path" fill="#3370FF"></path>
            </g>
        </g>
    </g>
</svg>